<svg xmlns="http://www.w3.org/2000/svg" viewBox="0 0 655.44 339.44"><defs><style>.cls-1{fill:#c72026;}.cls-2{fill:#fff;}</style></defs><g id="Layer_2" data-name="Layer 2"><g id="Layer_1-2" data-name="Layer 1"><path class="cls-1" d="M87,339.44S-42.77,275.12,14.67,158c0,0,.14,23,18.23,14.36s42.22-96.93,44.37-112c0,0-5.6,47.81,14.65,45.66s35.89-65.19,11.2-106c0,0,58,13.78,24.69,122.91s27.86,98.93,30.88,72.23c0,0,56.43,103.38-15.94,144.3,0,0,16.37-13.35,7.75-67.63,0,0-10.77,25.42-24.55,24.13,0,0-47.82-34-30.16-98.22,0,0-30,48.68-6,90.46,0,0-16.43,9.48-28.06-9.48C61.76,278.7,49.84,311.44,87,339.44Z"/><path class="cls-2" d="M131.46,286a58.05,58.05,0,0,1-23.84-4.83,44.79,44.79,0,0,1-17.8-14l16.44-19.54a37.38,37.38,0,0,0,11,10.4A24.7,24.7,0,0,0,130,261.5q18.08,0,18.08-21V179.68H103.33V155.93h74.34v82.92q0,23.75-11.78,35.43T131.46,286Z"/><path class="cls-2" d="M235,285.24q-11.32,0-19.55-3.93a30.68,30.68,0,0,1-12.69-10.68,26.89,26.89,0,0,1-4.47-15.16,27.56,27.56,0,0,1,4.29-15.25q4.29-6.67,13.61-10.32t24.47-3.65h25.94v16.44h-23q-10,0-13.78,3.28a10.49,10.49,0,0,0-3.75,8.22,10.25,10.25,0,0,0,4.29,8.68q4.29,3.18,11.6,3.19A25.88,25.88,0,0,0,255,262.78a18,18,0,0,0,8.13-10l4.38,13.33a25.82,25.82,0,0,1-11.32,14.15Q248,285.25,235,285.24ZM265,283.78V264.61l-1.82-4.21V226.07q0-9.15-5.58-14.24t-17.07-5.13a49.61,49.61,0,0,0-15.43,2.47A43.52,43.52,0,0,0,212,215.84L202,195.93a57.84,57.84,0,0,1,19.36-8.85,88.64,88.64,0,0,1,23-3q22.47,0,34.88,10.59t12.43,33.07v56.06Z"/><path class="cls-2" d="M358.83,285.24a48.42,48.42,0,0,1-21.91-4.74,33.68,33.68,0,0,1-14.8-14.61q-5.3-9.88-5.29-24.84V185.52h28.49v51.15q0,12.41,5.2,18.16t14.7,5.75a23.2,23.2,0,0,0,11.69-2.91A20.62,20.62,0,0,0,385,248.9q3-5.85,3-14.61V185.52h28.32v98.26h-27V256.57l4.94,8A34.85,34.85,0,0,1,379.66,280,42.66,42.66,0,0,1,358.83,285.24Z"/><path class="cls-2" d="M442.85,283.78V148.26h28.49V283.78Zm23.56-20.09.73-34.89L513,185.52h34l-44,44.75-14.8,12.24Zm49.67,20.09-33.23-41.27,17.9-22.1,49.85,63.37Z"/><path class="cls-2" d="M608,285.24q-16.8,0-29.4-6.57a47.89,47.89,0,0,1-26.48-44,51.2,51.2,0,0,1,6.66-26.13,46.9,46.9,0,0,1,18.64-18,55.49,55.49,0,0,1,26.93-6.49,54.18,54.18,0,0,1,26,6.22,46.58,46.58,0,0,1,18.36,17.52q6.75,11.32,6.75,27.22c0,1.1-.06,2.34-.18,3.74s-.25,2.71-.37,3.93H575.08V226.07h64.84L628.78,231a26.11,26.11,0,0,0-2.92-13.33,22.8,22.8,0,0,0-8.59-8.86,25,25,0,0,0-12.79-3.19,25.51,25.51,0,0,0-12.87,3.19,22.46,22.46,0,0,0-8.68,8.95,28.33,28.33,0,0,0-3.1,13.6v4.38A27,27,0,0,0,583.48,250a24,24,0,0,0,10,9.21,33.83,33.83,0,0,0,15.34,3.2,36.77,36.77,0,0,0,13.61-2.36,33.82,33.82,0,0,0,10.86-7.14l15.16,16.44a44.23,44.23,0,0,1-17,11.79A63.09,63.09,0,0,1,608,285.24Z"/></g></g></svg>